<?xml version="1.0" encoding="utf-8"?>
<svg xmlns="http://www.w3.org/2000/svg" viewBox="0 0 48 48" width="144" height="144">
  <path d="M24.476562 1.9785156 A 1.50015 1.50015 0 0 0 23 3.5C23 5.5 22.3125 5.828125 21.0625 6.828125C19.8125 7.828125 18 9.5 18 12.5 A 1.50015 1.50015 0 1 0 21 12.5C21 10.5 21.6875 10.171875 22.9375 9.171875C24.1875 8.171875 26 6.5 26 3.5 A 1.50015 1.50015 0 0 0 24.476562 1.9785156 z M 30.476562 3.9785156 A 1.50015 1.50015 0 0 0 29 5.5C29 6.25 28.854916 6.5637711 28.650391 6.8535156C28.445865 7.1432601 28.099609 7.4257812 27.599609 7.8007812C27.099609 8.1757812 26.445865 8.6432601 25.900391 9.4160156C25.354916 10.188771 25 11.25 25 12.5 A 1.50015 1.50015 0 1 0 28 12.5C28 11.75 28.145084 11.436229 28.349609 11.146484C28.554135 10.85674 28.900391 10.574219 29.400391 10.199219C29.900391 9.8242185 30.554135 9.3567399 31.099609 8.5839844C31.645084 7.8112289 32 6.75 32 5.5 A 1.50015 1.50015 0 0 0 30.476562 3.9785156 z M 14.5 16C12.585045 16 11 17.585045 11 19.5L11 31.5C11 35.624501 14.375499 39 18.5 39L29.5 39C33.447463 39 36.625731 35.881292 36.898438 32L37.5 32C41.071938 32 44 29.071938 44 25.5L44 23.5C44 21.585045 42.414955 20 40.5 20L37 20L37 19.5C37 17.585045 35.414955 16 33.5 16L14.5 16 z M 14.5 19L33.5 19C33.795045 19 34 19.204955 34 19.5L34 31.5C34 34.003499 32.003499 36 29.5 36L18.5 36C15.996501 36 14 34.003499 14 31.5L14 19.5C14 19.204955 14.204955 19 14.5 19 z M 37 23L40.5 23C40.795045 23 41 23.204955 41 23.5L41 25.5C41 27.450062 39.450062 29 37.5 29L37 29L37 23 z M 7.5 41 A 1.50015 1.50015 0 1 0 7.5 44L40.5 44 A 1.50015 1.50015 0 1 0 40.5 41L7.5 41 z" fill="#2F2F2F" />
</svg>