<svg xmlns="http://www.w3.org/2000/svg" width="30" height="30" fill="none" viewBox="0 0 30 30">
  <path fill="#FFC107" d="M27.257 12.552H26.25V12.5H15v5h7.064c-1.03 2.91-3.8 5-7.064 5a7.5 7.5 0 0 1 0-15 7.46 7.46 0 0 1 4.976 1.9l3.535-3.536A12.442 12.442 0 0 0 15 2.5C8.097 2.5 2.5 8.097 2.5 15S8.097 27.5 15 27.5 27.5 21.903 27.5 15c0-.838-.086-1.656-.243-2.448Z"/>
  <path fill="#FF3D00" d="m3.941 9.182 4.107 3.012A7.497 7.497 0 0 1 15 7.5a7.46 7.46 0 0 1 4.976 1.9l3.535-3.536A12.442 12.442 0 0 0 15 2.5c-4.801 0-8.965 2.71-11.059 6.682Z"/>
  <path fill="#4CAF50" d="M15 27.5a12.44 12.44 0 0 0 8.38-3.245l-3.868-3.274A7.444 7.444 0 0 1 15 22.5c-3.251 0-6.012-2.073-7.052-4.966l-4.076 3.14C5.94 24.723 10.142 27.5 15 27.5Z"/>
  <path fill="#1976D2" d="M27.257 12.552H26.25V12.5H15v5h7.064a7.526 7.526 0 0 1-2.554 3.482l.002-.001 3.869 3.273c-.274.25 4.119-3.004 4.119-9.254 0-.838-.086-1.656-.243-2.448Z"/>
</svg>
