<svg width="18" height="19" viewBox="0 0 18 19" fill="none" xmlns="http://www.w3.org/2000/svg">
<g clip-path="url(#clip0_18_377)">
<path d="M9 4.7251C8.40666 4.7251 7.82664 4.90984 7.33329 5.25597C6.83994 5.60209 6.45543 6.09406 6.22836 6.66964C6.0013 7.24523 5.94189 7.87859 6.05765 8.48963C6.1734 9.10067 6.45912 9.66195 6.87868 10.1025C7.29824 10.543 7.83279 10.843 8.41473 10.9646C8.99667 11.0861 9.59987 11.0237 10.1481 10.7853C10.6962 10.5469 11.1648 10.1432 11.4944 9.62514C11.8241 9.10713 12 8.49811 12 7.8751C12 7.03967 11.6839 6.23845 11.1213 5.64771C10.5587 5.05697 9.79565 4.7251 9 4.7251ZM9 9.4501C8.70333 9.4501 8.41332 9.35773 8.16665 9.18466C7.91997 9.0116 7.72771 8.76562 7.61418 8.47782C7.50065 8.19003 7.47095 7.87335 7.52882 7.56783C7.5867 7.26231 7.72956 6.98167 7.93934 6.7614C8.14912 6.54114 8.41639 6.39113 8.70737 6.33036C8.99834 6.26959 9.29994 6.30078 9.57403 6.41999C9.84812 6.5392 10.0824 6.74107 10.2472 7.00007C10.412 7.25908 10.5 7.56359 10.5 7.8751C10.5 8.29281 10.342 8.69342 10.0607 8.98879C9.77936 9.28416 9.39783 9.4501 9 9.4501Z" fill="#797979"/>
<path d="M8.99999 18.9001C8.36845 18.9035 7.74532 18.748 7.18279 18.4466C6.62026 18.1451 6.13469 17.7066 5.76674 17.1676C2.90849 13.0277 1.45874 9.91552 1.45874 7.91685C1.45874 5.81678 2.25326 3.80273 3.66752 2.31776C5.08178 0.832784 6.99993 -0.00146484 8.99999 -0.00146484C11.0001 -0.00146484 12.9182 0.832784 14.3325 2.31776C15.7467 3.80273 16.5412 5.81678 16.5412 7.91685C16.5412 9.91552 15.0915 13.0277 12.2332 17.1676C11.8653 17.7066 11.3797 18.1451 10.8172 18.4466C10.2547 18.748 9.63153 18.9035 8.99999 18.9001V18.9001ZM8.99999 1.71765C7.4343 1.71952 5.93325 2.37342 4.82614 3.53588C3.71904 4.69835 3.09628 6.27445 3.09449 7.91842C3.09449 9.5013 4.51424 12.4284 7.09124 16.1604C7.31001 16.4768 7.59702 16.7343 7.92878 16.9119C8.26053 17.0895 8.62762 17.182 8.99999 17.182C9.37236 17.182 9.73945 17.0895 10.0712 16.9119C10.403 16.7343 10.69 16.4768 10.9087 16.1604C13.4857 12.4284 14.9055 9.5013 14.9055 7.91842C14.9037 6.27445 14.2809 4.69835 13.1738 3.53588C12.0667 2.37342 10.5657 1.71952 8.99999 1.71765V1.71765Z" fill="#797979"/>
</g>
<defs>
<clipPath id="clip0_18_377">
<rect width="18" height="18.9" fill="white"/>
</clipPath>
</defs>
</svg>
