<svg xmlns="http://www.w3.org/2000/svg" width="19" height="24" fill="none" viewBox="0 0 19 24">
  <path fill="#848282" d="M9.085 11.186a5.6 5.6 0 0 1-5.593-5.593A5.6 5.6 0 0 1 9.085 0a5.6 5.6 0 0 1 5.593 5.593 5.6 5.6 0 0 1-5.593 5.593Zm0-9.727a4.143 4.143 0 0 0-4.134 4.134 4.143 4.143 0 0 0 4.134 4.134 4.143 4.143 0 0 0 4.134-4.134A4.143 4.143 0 0 0 9.085 1.46Zm8.355 19.454a.735.735 0 0 1-.729-.73c0-3.355-3.424-6.079-7.626-6.079s-7.626 2.724-7.626 6.08c0 .399-.33.73-.73.73a.735.735 0 0 1-.729-.73c0-4.154 4.076-7.539 9.085-7.539 5.01 0 9.085 3.385 9.085 7.539 0 .399-.33.73-.73.73Z"/>
  <path fill="#848282" d="M17.44 19.253a.735.735 0 0 0-.729.73c0 3.355-5.323 2.8-7.626 2.8s-7.626.555-7.626-2.8c0-.4-.33-.73-.73-.73a.735.735 0 0 0-.729.73C0 24.135 4.076 24 9.085 24c5.01 0 9.085.136 9.085-4.018 0-.399-.33-.73-.73-.73Z"/>
</svg>
