<svg xmlns="http://www.w3.org/2000/svg" width="24" height="22" fill="none" viewBox="0 0 24 22">
  <path fill="#848282" d="M12 21.544a2.88 2.88 0 0 1-.96-.145C6.776 19.937 0 14.746 0 7.077 0 3.17 3.16 0 7.044 0 8.93 0 10.694.737 12 2.054A6.937 6.937 0 0 1 16.956 0C20.841 0 24 3.181 24 7.077c0 7.68-6.776 12.86-11.04 14.322-.28.1-.614.145-.96.145ZM7.044 1.674c-2.958 0-5.37 2.423-5.37 5.403 0 7.624 7.334 11.866 9.913 12.748.2.067.636.067.837 0 2.568-.882 9.913-5.112 9.913-12.748 0-2.98-2.411-5.403-5.37-5.403-1.696 0-3.27.793-4.286 2.166-.313.424-1.027.424-1.34 0-1.038-1.384-2.6-2.166-4.297-2.166Z"/>
  <path stroke="#848282" stroke-linecap="round" stroke-linejoin="round" d="M19 8.5c0-1.5-1-3-2-3.5"/>
</svg>
