<svg xmlns="http://www.w3.org/2000/svg" width="20" height="21" fill="none" viewBox="0 0 20 21">
  <g clip-path="url(#a)">
    <path fill="#2F2F2F" d="M10 5.25c-.66 0-1.304.205-1.852.59A3.469 3.469 0 0 0 6.92 7.41a3.663 3.663 0 0 0-.19 2.023c.13.679.447 1.302.913 1.792s1.06.823 1.707.958a3.186 3.186 0 0 0 1.926-.2 3.373 3.373 0 0 0 1.496-1.289 3.626 3.626 0 0 0 .561-1.944 3.59 3.59 0 0 0-.976-2.475A3.255 3.255 0 0 0 10 5.25Zm0 5.25a1.61 1.61 0 0 1-.926-.295 1.735 1.735 0 0 1-.614-.785 1.831 1.831 0 0 1-.095-1.011c.065-.34.223-.652.457-.896a1.601 1.601 0 0 1 1.816-.38c.304.133.565.357.748.645.183.288.28.626.28.972 0 .464-.175.91-.487 1.237A1.628 1.628 0 0 1 10 10.5Z"/>
    <path fill="#2F2F2F" d="M10 21a4.223 4.223 0 0 1-2.02-.504 4.46 4.46 0 0 1-1.572-1.42c-3.176-4.6-4.787-8.059-4.787-10.28 0-2.333.883-4.57 2.454-6.22C5.646.925 7.778-.002 10-.002s4.354.926 5.925 2.576c1.571 1.65 2.454 3.888 2.454 6.222 0 2.22-1.61 5.678-4.787 10.278a4.46 4.46 0 0 1-1.573 1.421A4.223 4.223 0 0 1 10 21Zm0-19.09c-1.74.002-3.407.728-4.638 2.02C4.132 5.222 3.44 6.973 3.438 8.8c0 1.758 1.578 5.01 4.441 9.157.243.352.562.638.93.835a2.52 2.52 0 0 0 2.381 0 2.66 2.66 0 0 0 .93-.835c2.864-4.146 4.442-7.399 4.442-9.158-.002-1.826-.694-3.577-1.924-4.87-1.23-1.29-2.898-2.017-4.638-2.02Z"/>
  </g>
  <defs>
    <clipPath id="a">
      <path fill="#fff" d="M0 0h20v21H0z"/>
    </clipPath>
  </defs>
</svg>
