<?xml version="1.0" encoding="utf-8"?>
<svg xmlns="http://www.w3.org/2000/svg" viewBox="0 0 64 64" width="512" height="512">
  <path d="M32 4C16.536 4 4 16.536 4 32C4 47.464 16.536 60 32 60C45.14 60 56.159734 50.947234 59.177734 38.740234L54.761719 39.595703C51.576719 49.116703 42.58 56 32 56C18.766 56 8 45.234 8 32C8 18.766 18.766 8 32 8C42.58 8 51.576719 14.883297 54.761719 24.404297L59.177734 25.259766C56.159734 13.052766 45.14 4 32 4 z M 37 22L23 32L37 42L37 35.796875L60 34L60 30L37 28.203125L37 22 z" fill="#0A1C2A" />
</svg>