<?xml version="1.0" encoding="utf-8"?>
<svg xmlns="http://www.w3.org/2000/svg" viewBox="0 0 64 64" width="512" height="512">
  <path d="M12.845703 7.0371094L10.890625 8.9902344L21.613281 19.714844L20.148438 21.179688L8.9355469 10.945312L6.9824219 12.898438L17.216797 24.109375L15.751953 25.574219L5.0292969 14.853516L3 16.880859C3 16.880859 8.6130781 24.297625 17.705078 33.390625C17.705078 33.390625 20.504594 33.010375 23.308594 31.234375L27.585938 35.837891L10.037109 52.138672C10.037109 52.138672 10.188578 53.943484 12.142578 55.896484C14.096578 57.849484 15.898438 58 15.898438 58L40.447266 31.574219C44.408089 33.857959 49.543418 33.305068 54.080078 28.767578C59.547078 23.300578 62.070703 14.130297 57.970703 10.029297C53.870703 5.9292969 44.699422 8.4529219 39.232422 13.919922C34.677363 18.474981 34.139477 23.632007 36.455078 27.599609L32.041016 31.701172L27.273438 27.271484C29.049437 24.466484 29.429688 21.667969 29.429688 21.667969C20.337688 12.575969 12.845703 7.0371094 12.845703 7.0371094 z M 38.65625 37.847656L34.615234 43.404297L48.138672 57.962891C48.138672 57.962891 49.942484 57.811422 51.896484 55.857422C53.850484 53.904422 54 52.101562 54 52.101562L38.65625 37.847656 z" fill="#2F2F2F" />
</svg>