<svg xmlns="http://www.w3.org/2000/svg" width="502" height="438" fill="none" viewBox="0 0 502 438">
  <path fill="#FFFBF2" d="M327.791 49.854c5.86 2.415 11.818 3.878 17.868 4.537-13.246-2.175-25.026-10.033-33.607-19.7-9.433-10.629-14.496-22.113-20.528-34.662L282.388 0c8.068 21 22.734 40.51 45.403 49.854Z"/>
  <path fill="#FFE0CF" d="M501.083 211.681c-7.064-.183-17.598-.456-30.373-.526-2.419-4.72-4.84-9.408-7.237-14.045-.649-1.257-1.538-2.978-3.316-4.104-1.972-1.251-4.266-1.304-5.941-1.343l-1.079-.025.616-.185a331.233 331.233 0 0 1-10.168-34.609l-5.078 1.011a335.468 335.468 0 0 0 9.818 33.672l-8.502-.197c-.802-.019-2.471-.057-2.955-.557-.281-.291-.468-1.028-.618-1.62-1.34-5.287-2.972-11.269-4.551-17.055-1.569-5.751-3.191-11.699-4.519-16.933l-5.06 1.085c1.336 5.274 2.965 11.241 4.54 17.012 1.573 5.767 3.201 11.731 4.53 16.978.269 1.06.637 2.514 1.799 3.714 1.982 2.046 5.053 2.117 6.704 2.155l14.392.334c1.081.025 2.425.056 3.126.501.63.399 1.129 1.366 1.571 2.22 7.876 15.234 16.019 30.989 23.426 46.753 1.581 3.363 2.785 6.164 2.715 9.026-.019.792-.167 1.874-.765 2.533-1.013 1.121-3.364 1.297-5.043 1.331-39.38.804-73.567.252-116.847-.446-6.578-.107-13.394-.216-20.505-.327l-.087 4.782c7.109.109 13.925.219 20.501.325 28.092.453 52.355.844 76.704.844 13.216 0 26.459-.115 40.349-.398 2.695-.055 6.552-.433 8.921-3.051 1.25-1.381 1.912-3.227 1.966-5.486.101-4.134-1.696-7.958-3.139-11.03-4.42-9.406-9.095-18.792-13.816-28.066 11.602.089 21.198.338 27.776.509"/>
  <path fill="#FFE0CF" d="M.387 254.772c17.098 0 33.378-.223 52.681-.707-2.224 4.747-4.13 9-5.829 12.787-1.183 2.64-2.257 5.037-3.257 7.192-2.142 4.618-1.613 9.867 1.414 14.043 2.998 4.136 7.995 6.594 13.391 6.594l.15-.001c13.23-.112 26.544-.24 39.913-.369 49.422-.475 99.929-.955 149.84-.646l-61.904 133.86 4.781 1.872 62.754-135.692c7 .052 13.986.12 20.955.207l-61.543 133.076 4.781 1.871 62.374-134.872c16.385.228 32.671.556 48.785 1.026l.164-4.779c-23.692-.69-47.738-1.089-71.944-1.288a184.032 184.032 0 0 1 8.686-14.444c.92-1.381 1.772-2.584 2.861-3.324 1.895-1.288 4.753-1.363 7.751-1.327 13.122.157 30.438.17 45.638.17v-4.781c-15.184 0-32.481-.013-45.571-.17-3.768-.047-7.714.093-10.904 2.262-1.839 1.248-3.037 2.92-4.203 4.669a188.348 188.348 0 0 0-9.883 16.609l.681.303c-51.324-.366-103.31.129-154.15.619-13.368.128-26.679.255-39.907.368l-.107.001c-3.705 0-7.004-1.624-9.065-4.467-2.05-2.828-2.409-6.385-.957-9.512a649.192 649.192 0 0 0 3.282-7.246c3.36-7.494 7.54-16.819 13.38-28.173 15.73-30.588 35.828-30.888 36.252-30.888h.005c5.589.075 12.819-.141 19.808-.35 6.933-.207 14.1-.423 19.574-.349l.38.006 4.761-1.24.532-.774c3.935-5.729 7.437-10.965 10.823-16.029 1.549-2.317 3.129-4.678 4.756-7.097l-1.475 1.887c31.105.588 63.842.797 95.162.797 36.271 0 72.565-.395 108.579-1.183l-.124-4.78a4973.843 4973.843 0 0 1-200.152.331 996.897 996.897 0 0 1 4.064-5.967 211.284 211.284 0 0 0 3.179-4.723c31.005.584 62.205.878 93.423.878 36.271 0 72.565-.395 108.579-1.183l-.124-4.78a4973.915 4973.915 0 0 1-199.033.35c2.156-3.937 3.868-8.157 4.402-12.708.126-1.071.508-4.33-1.922-6.447-1.898-1.653-4.495-1.706-6.048-1.738l-76.889-1.566c5.67-11.318 12.778-24.227 19.117-35.728 1.8-3.265 3.552-6.444 5.214-9.483l-4.641-2.15c-1.66 3.035-3.411 6.21-5.208 9.471-6.712 12.176-14.293 25.937-20.144 37.774l-7.079-.144c-2.679-.054-4.048-.633-4.185-1.147-.134-.501.468-1.579.792-2.158 3.564-6.379 7.816-13.678 11.928-20.735 4.116-7.066 8.372-14.373 11.952-20.78l-4.62-2.187c-3.56 6.371-7.806 13.659-11.912 20.708-4.12 7.076-8.384 14.392-11.969 20.807-.678 1.215-1.814 3.248-1.216 5.486.564 2.109 2.603 4.653 9.116 4.785l89.629 1.826c.751.016 2.148.044 2.591.43.168.146.538.681.329 2.462-.86 7.323-5.531 14.124-9.653 20.126-3.943 5.741-7.451 10.987-10.843 16.06-3.225 4.823-6.554 9.802-10.259 15.207l-2.117.551c-5.545-.061-12.602.151-19.437.355-6.929.207-14.093.423-19.534.35-.965-.029-23.679-.17-41.059 33.622a456.466 456.466 0 0 0-5.353 10.765c-20.17.523-37.646.773-55.318.773"/>
  <path fill="#FF7B5F" d="M118.74 11.043c-10.186 0-18.444 8.34-18.444 18.627 0 10.287 17.396 29.21 18.444 29.21 1.048 0 18.444-18.923 18.444-29.21 0-10.288-8.258-18.627-18.444-18.627Zm.186 25.525c-4.739 0-8.58-3.534-8.58-7.895 0-4.36 3.841-7.895 8.58-7.895 4.738 0 8.58 3.535 8.58 7.895 0 4.36-3.841 7.895-8.58 7.895Z"/>
  <path fill="#579AA3" d="M51.234 106.957c9.305 0 16.849-6.941 16.849-15.504 0-8.562-7.544-15.504-16.85-15.504-9.305 0-16.848 6.942-16.848 15.504 0 8.563 7.543 15.504 16.849 15.504Z"/>
  <path stroke="#13123D" stroke-linecap="round" stroke-miterlimit="10" stroke-width=".869" d="M51.3 92.153v23.558m3.52-19.122-3.477 5.026m-3.696-7.539 3.478 3.298"/>
  <path fill="#6ABCC7" d="M28.396 106.957c9.305 0 16.849-6.941 16.849-15.504 0-8.562-7.544-15.504-16.85-15.504-9.305 0-16.848 6.942-16.848 15.504 0 8.563 7.543 15.504 16.849 15.504Z"/>
  <path stroke="#13123D" stroke-linecap="round" stroke-miterlimit="10" stroke-width=".869" d="M28.462 92.153v23.558m3.521-19.122-3.478 5.026m-3.696-7.539 3.478 3.298"/>
  <path fill="#EFBBA3" d="M47.573 118.234 89.03 60.857c3.639-5.17 9.562-5.269 13.23-.222l41.786 57.507-96.473.092Z"/>
  <path stroke="#fff" stroke-linecap="round" stroke-linejoin="round" stroke-miterlimit="10" stroke-width="1.681" d="M82.372 68.468c2.199.026 2.159 2.872 4.358 2.899 2.199.027 2.239-2.82 4.438-2.794 2.199.027 2.158 2.873 4.358 2.9 2.2.026 2.242-2.82 4.443-2.793 2.203.027 2.162 2.873 4.364 2.9 2.202.026 2.243-2.82 4.446-2.793"/>
  <path fill="#EFC8B0" d="m93.658 118.142 43.258-60.014c3.797-5.395 9.982-5.491 13.816-.216l43.673 60.104-100.747.126Z"/>
  <path stroke="#fff" stroke-linecap="round" stroke-linejoin="round" stroke-miterlimit="10" stroke-width="1.681" d="M132.113 64.175c1.99.027 1.945 2.873 3.935 2.9 1.989.026 2.034-2.82 4.024-2.793 1.99.026 1.945 2.872 3.934 2.9 1.99.026 2.035-2.82 4.025-2.794 1.993.027 1.948 2.873 3.942 2.9 1.993.026 2.038-2.82 4.032-2.793"/>
  <path fill="#FF8A6C" d="M57.53 110.853a8.431 8.431 0 0 0-4.202 1.111c-2.403-4.074-7.092-6.839-12.483-6.839-7.84 0-14.194 5.848-14.194 13.061h38.847c0-4.05-3.567-7.333-7.968-7.333Zm148.748-.153a8.431 8.431 0 0 0-4.202 1.111c-2.403-4.074-7.092-6.839-12.483-6.839-7.839 0-14.194 5.848-14.194 13.061h38.847c.001-4.05-3.567-7.333-7.968-7.333Z"/>
  <path fill="#F6D26E" d="M167.468 57.807c5.427 0 9.827-4.048 9.827-9.042s-4.4-9.043-9.827-9.043-9.827 4.049-9.827 9.043c0 4.994 4.4 9.042 9.827 9.042Z"/>
  <path fill="#E8674E" d="M183.011 415.719c-2.685 0-5.183.714-7.305 1.931-4.178-7.083-12.331-11.891-21.705-11.891-13.631 0-24.68 10.167-24.68 22.709h67.547c-.001-7.041-6.204-12.749-13.857-12.749Z"/>
  <path fill="#FF8A6C" d="M207.692 415.719c-2.685 0-5.183.714-7.305 1.931-4.178-7.083-12.331-11.891-21.705-11.891-13.631 0-24.68 10.167-24.68 22.709h67.547c-.002-7.041-6.205-12.749-13.857-12.749Z"/>
  <path fill="#4E8891" d="M181.179 419.475c9.07 0 16.423-6.766 16.423-15.112s-7.353-15.112-16.423-15.112c-9.07 0-16.423 6.766-16.423 15.112s7.353 15.112 16.423 15.112Z"/>
  <path stroke="#13123D" stroke-linecap="round" stroke-miterlimit="10" stroke-width=".847" d="M181.243 405.045v22.962m3.433-18.638-3.391 4.898m-3.602-7.347 3.39 3.215"/>
  <path fill="#579AA3" d="M154.314 417.834c10.814 0 19.581-8.067 19.581-18.018s-8.767-18.018-19.581-18.018-19.581 8.067-19.581 18.018 8.767 18.018 19.581 18.018Z"/>
  <path stroke="#13123D" stroke-linecap="round" stroke-miterlimit="10" stroke-width="1.01" d="M154.39 400.631v27.376m4.093-22.222-4.043 5.841m-4.295-8.761 4.042 3.833"/>
  <path fill="#E8674E" d="M124.73 424.251c-2.685 0-5.183.714-7.305 1.931-4.178-7.083-12.331-11.892-21.705-11.892-13.631 0-24.68 10.168-24.68 22.71h67.547c-.001-7.041-6.204-12.749-13.857-12.749Z"/>
  <path fill="#6ABCC7" d="M77.716 407.21H67.625c-5.788 0-10.48-4.318-10.48-9.644 0-5.326 4.692-9.643 10.48-9.643h10.091c5.788 0 10.48 4.317 10.48 9.643 0 5.326-4.692 9.644-10.48 9.644Z"/>
  <path fill="#6ABCC7" d="M78.984 426.062H66.357c-7.242 0-13.113-5.402-13.113-12.066 0-6.664 5.87-12.066 13.113-12.066h12.628c7.242 0 13.113 5.402 13.113 12.066 0 6.664-5.871 12.066-13.114 12.066Z"/>
  <path stroke="#13123D" stroke-linecap="round" stroke-miterlimit="10" stroke-width="1.075" d="M72.617 403.218v32.891m3.86-26.698-3.813 7.017m-4.051-10.525 3.813 4.605"/>
  <path fill="#D46044" d="M40.74 424.251c2.685 0 5.183.714 7.305 1.931 4.178-7.083 12.33-11.892 21.705-11.892 13.63 0 24.68 10.168 24.68 22.71H26.884c0-7.041 6.203-12.749 13.856-12.749Z"/>
  <path fill="#6ABCC7" d="M132.465 384.864h-10.092c-5.788 0-10.48-4.317-10.48-9.643 0-5.326 4.692-9.643 10.48-9.643h10.092c5.788 0 10.48 4.317 10.48 9.643 0 5.326-4.692 9.643-10.48 9.643Z"/>
  <path fill="#6ABCC7" d="M133.733 403.717h-12.627c-7.242 0-13.113-5.403-13.113-12.066 0-6.664 5.871-12.066 13.113-12.066h12.628c7.242 0 13.113 5.402 13.113 12.066-.001 6.663-5.872 12.066-13.114 12.066Z"/>
  <path stroke="#13123D" stroke-linecap="round" stroke-miterlimit="10" stroke-width="1.075" d="M127.366 380.873v32.891m3.86-26.698-3.813 7.017m-4.051-10.525 3.813 4.604"/>
  <path fill="#FF8A6C" d="M149.411 424.251c-2.685 0-5.183.714-7.305 1.931-4.178-7.083-12.331-11.892-21.705-11.892-13.631 0-24.68 10.168-24.68 22.71h67.547c-.002-7.041-6.205-12.749-13.857-12.749Z"/>
  <path fill="#4E8891" d="M122.898 428.006c9.07 0 16.423-6.765 16.423-15.112 0-8.346-7.353-15.111-16.423-15.111-9.07 0-16.423 6.765-16.423 15.111 0 8.347 7.353 15.112 16.423 15.112Z"/>
  <path stroke="#13123D" stroke-linecap="round" stroke-miterlimit="10" stroke-width=".847" d="M122.962 413.577v22.962m3.433-18.638-3.391 4.898m-3.602-7.347 3.39 3.215"/>
  <path fill="#579AA3" d="M96.033 426.366c10.814 0 19.581-8.067 19.581-18.018s-8.767-18.018-19.581-18.018-19.581 8.067-19.581 18.018 8.767 18.018 19.58 18.018Z"/>
  <path stroke="#13123D" stroke-linecap="round" stroke-miterlimit="10" stroke-width="1.01" d="M96.11 409.162v27.377m4.092-22.222-4.043 5.84m-4.295-8.761 4.042 3.834"/>
  <path fill="#FF7B5F" d="M90.15 326.433c-10.185 0-18.443 8.339-18.443 18.627 0 10.287 17.396 29.211 18.444 29.211 1.048 0 18.444-18.924 18.444-29.211 0-10.288-8.257-18.627-18.444-18.627Zm.188 25.525c-4.74 0-8.58-3.534-8.58-7.895 0-4.36 3.84-7.895 8.58-7.895 4.738 0 8.58 3.535 8.58 7.895 0 4.361-3.842 7.895-8.58 7.895Zm120.501-202.395c-10.186 0-18.444 8.339-18.444 18.627 0 10.287 17.396 29.21 18.444 29.21 1.048 0 18.444-18.923 18.444-29.21 0-10.288-8.258-18.627-18.444-18.627Zm.186 25.524c-4.739 0-8.58-3.534-8.58-7.895s3.841-7.895 8.58-7.895c4.738 0 8.58 3.534 8.58 7.895s-3.841 7.895-8.58 7.895Z"/>
  <path stroke="#FF835A" stroke-miterlimit="10" stroke-width="3.459" d="m160.241 221.244 13.509 36.855m-25.695-37.116-13.602 37.116"/>
  <path stroke="#FF835A" stroke-linecap="round" stroke-miterlimit="10" stroke-width="3.459" d="M121.7 257.751h66.597"/>
  <path fill="#6ABCC7" d="M154.101 187.409c-11.125 0-20.145 8.299-20.145 18.537s9.019 18.536 20.145 18.536 20.145-8.298 20.145-18.536c0-10.238-9.019-18.537-20.145-18.537Zm0 28.271c-5.843 0-10.58-4.359-10.58-9.735 0-5.377 4.737-9.735 10.58-9.735s10.58 4.358 10.58 9.735c0 5.376-4.737 9.735-10.58 9.735Z"/>
  <path stroke="#FF835A" stroke-miterlimit="10" stroke-width="3.459" d="M154.101 243.569c22.582 0 40.888-16.845 40.888-37.624 0-20.779-18.306-37.624-40.888-37.624-22.582 0-40.888 16.845-40.888 37.624 0 20.779 18.306 37.624 40.888 37.624Z"/>
  <path fill="#FF835A" d="m160.076 207.71 35.282-.819-.088-3.183-35.093.815a5.485 5.485 0 0 0-.563-1.339l23.99-23.473-2.52-2.18-23.901 23.387a6.514 6.514 0 0 0-1.352-.52v-32.076h-3.459v32.076c-.44.116-.862.271-1.257.468l-23.455-23.757-2.561 2.14 23.546 23.849a5.46 5.46 0 0 0-.697 1.71l-35.104.815.088 3.183 35.303-.82c.159.387.36.756.602 1.099l-24.239 23.717 2.52 2.18 24.331-23.808c.296.128.604.236.923.32v32.698h3.459v-32.699a6.72 6.72 0 0 0 .829-.278l23.883 24.19 2.561-2.14-23.792-24.099a5.61 5.61 0 0 0 .764-1.456Z"/>
  <path fill="#579AA3" d="M154.011 172.393c3.13 0 5.668-2.335 5.668-5.216 0-2.88-2.538-5.215-5.668-5.215-3.131 0-5.668 2.335-5.668 5.215 0 2.881 2.537 5.216 5.668 5.216Zm0 76.405c3.13 0 5.668-2.335 5.668-5.216 0-2.88-2.538-5.215-5.668-5.215-3.131 0-5.668 2.335-5.668 5.215 0 2.881 2.537 5.216 5.668 5.216Zm26.918-9.822c3.13 0 5.668-2.335 5.668-5.216 0-2.88-2.538-5.215-5.668-5.215-3.13 0-5.668 2.335-5.668 5.215 0 2.881 2.538 5.216 5.668 5.216Zm-54.412 0c3.13 0 5.668-2.335 5.668-5.216 0-2.88-2.538-5.215-5.668-5.215-3.13 0-5.668 2.335-5.668 5.215 0 2.881 2.538 5.216 5.668 5.216Zm68.015-28.684c3.13 0 5.668-2.335 5.668-5.216 0-2.88-2.538-5.215-5.668-5.215-3.131 0-5.668 2.335-5.668 5.215 0 2.881 2.537 5.216 5.668 5.216Zm-80.484 1.304c3.13 0 5.668-2.335 5.668-5.216 0-2.88-2.538-5.215-5.668-5.215-3.13 0-5.668 2.335-5.668 5.215 0 2.881 2.538 5.216 5.668 5.216Zm68.581-27.904c3.13 0 5.668-2.335 5.668-5.215s-2.538-5.216-5.668-5.216c-3.13 0-5.668 2.336-5.668 5.216 0 2.88 2.538 5.215 5.668 5.215Zm-56.395 0c3.13 0 5.668-2.335 5.668-5.215s-2.538-5.216-5.668-5.216c-3.13 0-5.668 2.336-5.668 5.216 0 2.88 2.538 5.215 5.668 5.215Zm-32.296 68.431c1.544 0 2.981.411 4.202 1.111 2.403-4.074 7.092-6.839 12.483-6.839 7.839 0 14.194 5.848 14.194 13.061H85.969c0-4.05 3.568-7.333 7.969-7.333Z"/>
  <path stroke="#FF835A" stroke-linecap="round" stroke-miterlimit="10" stroke-width="2.811" d="M228.143 208.33v10.456"/>
  <path fill="#579AA3" d="m229.409 208.012 6.677 3.814-6.677 3.601v-7.415Z"/>
  <path fill="#6ABCC7" d="m203.201 235.201 23.189-16.231a2.96 2.96 0 0 1 3.353 0l23.189 16.231h-49.731Z"/>
  <path fill="#fff" d="m217.974 235.201 8.416-16.231a2.96 2.96 0 0 1 3.353 0l8.339 16.231h-20.108Z"/>
  <path fill="#FF835A" stroke="#FF835A" stroke-linecap="round" stroke-linejoin="round" stroke-miterlimit="10" stroke-width="2.094" d="M252.817 235.307h-50.192v4.238h50.192v-4.238Z"/>
  <path fill="#FF835A" stroke="#FF835A" stroke-linecap="round" stroke-linejoin="round" stroke-miterlimit="10" stroke-width="2.275" d="M257.777 254.162h-59.244v4.238h59.244v-4.238Z"/>
  <path stroke="#FF835A" stroke-linecap="round" stroke-linejoin="round" stroke-miterlimit="10" stroke-width="2.275" d="M205.388 240.18v13.841m44.436-13.841v13.841"/>
  <path fill="#579AA3" d="M255.405 252.123c1.544 0 2.981.411 4.202 1.111 2.403-4.074 7.092-6.839 12.483-6.839 7.839 0 14.194 5.848 14.194 13.061h-38.847c0-4.05 3.567-7.333 7.968-7.333Z"/>
  <path fill="#4E8891" d="M20.633 199.223a8.42 8.42 0 0 1 4.202 1.111c2.403-4.074 7.092-6.839 12.483-6.839 7.839 0 14.194 5.848 14.194 13.061H12.664c0-4.05 3.568-7.333 7.969-7.333Z"/>
  <path fill="#579AA3" d="M39.629 199.922c1.544 0 2.98.411 4.202 1.111 2.403-4.074 7.092-6.839 12.483-6.839 7.839 0 14.194 5.848 14.194 13.061H31.66c0-4.05 3.568-7.333 7.969-7.333Z"/>
  <path fill="#4E8891" d="M274.725 119.122a8.43 8.43 0 0 1 4.202 1.11c2.403-4.073 7.092-6.838 12.483-6.838 7.839 0 14.194 5.847 14.194 13.061h-38.848c0-4.05 3.568-7.333 7.969-7.333Z"/>
  <path fill="#4E8891" d="M237.492 119.122a8.43 8.43 0 0 1 4.202 1.11c2.403-4.073 7.092-6.838 12.483-6.838 7.839 0 14.194 5.847 14.194 13.061h-38.847c-.001-4.05 3.567-7.333 7.968-7.333Z"/>
  <path fill="#579AA3" d="M257.124 123.47a8.43 8.43 0 0 1 4.202 1.11c2.403-4.073 7.092-6.838 12.483-6.838 7.839 0 14.194 5.847 14.194 13.06h-38.847c-.001-4.049 3.567-7.332 7.968-7.332Z"/>
  <path fill="#FF7B5F" d="M432.321 39.048c-10.186 0-18.444 8.34-18.444 18.627 0 10.287 17.396 29.21 18.444 29.21 1.048 0 18.444-18.923 18.444-29.21 0-10.287-8.258-18.627-18.444-18.627Zm.186 25.525c-4.739 0-8.58-3.534-8.58-7.894 0-4.361 3.841-7.896 8.58-7.896 4.738 0 8.58 3.535 8.58 7.895 0 4.361-3.841 7.895-8.58 7.895Z"/>
  <path fill="#fff" d="M440.874 77.538c4.828-6.25 9.891-14.313 9.891-19.863 0-10.287-8.258-18.627-18.444-18.627s-18.444 8.34-18.444 18.627c0 5.372 4.744 13.1 9.427 19.257l17.57.606Zm-8.367-12.965c-4.739 0-8.58-3.534-8.58-7.894 0-4.361 3.841-7.896 8.58-7.896 4.738 0 8.58 3.535 8.58 7.895 0 4.361-3.841 7.895-8.58 7.895Z"/>
  <path fill="#579AA3" d="M393.019 153.142c-.975 0-1.882.26-2.653.701-1.518-2.573-4.479-4.319-7.883-4.319-4.951 0-8.964 3.693-8.964 8.248h24.533c0-2.557-2.253-4.63-5.033-4.63Z"/>
  <path fill="#FF8A6C" d="M395.175 146.042h-1.96c-5.807 0-10.117-4.954-8.846-10.168l6.678-27.397c.287-1.176 1.421-2.012 2.731-2.012 1.282 0 2.401.801 2.714 1.945l7.472 27.248c1.446 5.27-2.883 10.384-8.789 10.384Z"/>
  <path stroke="#13123D" stroke-linecap="round" stroke-miterlimit="10" stroke-width=".907" d="M394.151 129.212v27.741m3.255-22.518-3.216 5.919m-3.417-8.877 3.216 3.883"/>
  <path fill="#6ABCC7" d="M383.283 144.289h-2.275c-6.74 0-11.742-5.749-10.267-11.801l7.751-31.796c.333-1.365 1.65-2.336 3.17-2.336 1.488 0 2.786.93 3.15 2.258l8.672 31.625c1.678 6.116-3.347 12.05-10.201 12.05Z"/>
  <path stroke="#13123D" stroke-linecap="round" stroke-miterlimit="10" stroke-width="1.052" d="M382.094 124.758v32.195m3.778-26.133-3.732 6.868m-3.966-10.302 3.732 4.507"/>
  <path fill="#EFC8B0" d="M457.018 115.007h-46.4v42.855h46.4v-42.855Z"/>
  <path fill="#A94E49" d="m410.618 115.007 46.401 42.855h-46.401v-42.855Z" opacity=".13"/>
  <path stroke="#fff" stroke-miterlimit="10" stroke-width="1.681" d="M438.908 158.552h-10.351v-12.486c0-2.63 2.317-4.762 5.175-4.762 2.858 0 5.175 2.132 5.175 4.762v12.486h.001Z"/>
  <path fill="#EFC8B0" d="M410.859 88.18h-14.778v69.682h14.778V88.18Zm60.78 0h-14.778v69.682h14.778V88.18Z"/>
  <path fill="#E8674E" d="M456.768 88.18h14.778l-6.47-8.246c-.425-.541-1.3-.545-1.729-.007l-6.579 8.253Zm-60.687 0h14.778l-6.47-8.246c-.425-.541-1.3-.545-1.729-.007l-6.579 8.253Z"/>
  <path stroke="#fff" stroke-miterlimit="10" stroke-width="1.143" d="m396.032 102.795 15.007.059m-15.007 19.787 15.007.059m-15.007 21.172 15.007.06m45.403-41.137 15.58.059m-15.58 20.66 15.58.059m-15.58 20.299 15.58.06"/>
  <path fill="#E8674E" d="m457.019 115.007-23.154-17.311c-.4-.3-.976-.293-1.368.014l-22.051 17.297h46.573Z"/>
  <path fill="#fff" d="M434.802 115.067h-2.134v-9.816c0-.542.478-.982 1.067-.982s1.067.44 1.067.982v9.816Zm5.736 0h-2.134v-7.982c0-.491.433-.89.967-.89h.2c.534 0 .967.399.967.89v7.982Zm-11.306 0h-2.134v-7.982c0-.491.433-.89.967-.89h.2c.534 0 .967.399.967.89v7.982Z"/>
  <path fill="#FF8A6C" d="M477.79 144.903h-1.96c-5.807 0-10.117-4.954-8.846-10.168l6.678-27.397c.287-1.176 1.421-2.012 2.731-2.012 1.282 0 2.401.801 2.714 1.945l7.472 27.248c1.446 5.271-2.883 10.384-8.789 10.384Z"/>
  <path stroke="#13123D" stroke-linecap="round" stroke-miterlimit="10" stroke-width=".907" d="M476.766 128.073v27.741m3.255-22.517-3.216 5.917m-3.416-8.876 3.215 3.884"/>
  <path fill="#579AA3" d="M489.52 153.492c-.975 0-1.882.259-2.653.701-1.518-2.573-4.479-4.319-7.883-4.319-4.951 0-8.964 3.692-8.964 8.248h24.533c0-2.557-2.254-4.63-5.033-4.63Z"/>
  <path fill="#4E8891" d="M262.937 402.509c1.486 0 2.868.395 4.043 1.068 2.313-3.92 6.825-6.581 12.013-6.581 7.544 0 13.66 5.628 13.66 12.569h-37.384c-.001-3.897 3.433-7.056 7.668-7.056Z"/>
  <path fill="#579AA3" d="M281.218 403.181c1.486 0 2.868.396 4.043 1.069 2.313-3.92 6.825-6.581 12.013-6.581 7.544 0 13.66 5.627 13.66 12.569h-37.385c0-3.898 3.434-7.057 7.669-7.057Z"/>
  <path fill="#4E8891" d="M435.821 403.577a8.127 8.127 0 0 0-4.043 1.068c-2.313-3.92-6.825-6.581-12.013-6.581-7.544 0-13.66 5.628-13.66 12.57h37.385c-.001-3.898-3.434-7.057-7.669-7.057Z"/>
  <path fill="#579AA3" d="M417.54 404.25a8.116 8.116 0 0 0-4.043 1.068c-2.313-3.92-6.825-6.581-12.013-6.581-7.544 0-13.66 5.628-13.66 12.569h37.385c-.001-3.897-3.434-7.056-7.669-7.056Z"/>
  <path fill="#FF7F78" d="M367.606 143.603s3.354.625 4.434.959c3.089.953 5.796 2.303 6.731 4.633l22.812 56.881c.74 1.845.214 3.918-1.337 5.271l-10.858 9.47s-23.255-46.761-21.782-77.214Z"/>
  <path fill="#F47A6E" d="m367.606 143.603-28.642.175-.979 3.248 29.952-.413-.331-3.01Z"/>
  <path fill="#BF0003" d="M352.036 145.075s2.998-1.628 2.638-.867c-.359.761-1.312 1.738-2.264 2.715l-.374-1.848Zm-13.8 2.912s-2.531-.046-2.297.5c.234.546 2.482.992 2.482.992l-.185-1.492Z"/>
  <path fill="#6290A1" d="M342.469 211.835s-5.002 66.296 6.04 92.088c11.042 25.792 51.533 60.828 51.533 60.828l21.68-10.792s-18.663-35.656-30.555-65.356c-4.403-10.997-9.483-30.511-3.801-41.473 7.345-14.172-.298-34.089-5.686-37.064-8.494-4.69-39.211 1.769-39.211 1.769Z"/>
  <path stroke="#fff" stroke-miterlimit="10" stroke-width="1.045" d="M353.713 260.728s6.951 41.891 55.952 98.812"/>
  <path fill="#65B8CF" d="M345.617 212.352c-57.338 77.505-43.063 64.073-34.569 160.206l26.799.368s.24-53.775 23.457-87.644c23.217-33.868 39.075-39.135 24.73-76.998l-40.417 4.068Z"/>
  <path stroke="#fff" stroke-miterlimit="10" stroke-width="1.045" d="M367.961 210.523s1.043 7.994-1.39 15.988c-2.433 7.995-38.228 39.653-41.356 63.956-3.128 24.304-1.043 82.184-1.043 82.184"/>
  <path fill="#F6CD6E" d="m343.035 365.978 5.946 39.947h-56.626v-4.536c0-5.938 4.814-10.943 11.219-11.664l7.279-.82-4.908-23.621 37.09.694Z"/>
  <path stroke="#fff" stroke-miterlimit="10" stroke-width="1.063" d="m310.359 388.605 6.562.321c1.855.091 3.394-1.305 3.322-3.013-.059-1.418-1.224-2.59-2.755-2.769l-8.663-.99m-.116-2.298 6.562.321c1.855.091 3.394-1.305 3.322-3.013-.059-1.418-1.224-2.59-2.755-2.769l-8.427-1.352"/>
  <path fill="#FA8F7F" d="M336.053 403.522c3.776 0 6.838-2.817 6.838-6.292 0-3.475-3.062-6.292-6.838-6.292-3.777 0-6.838 2.817-6.838 6.292 0 3.475 3.061 6.292 6.838 6.292Zm-38.589 7.909h46.409c2.821 0 5.108-2.104 5.108-4.7v-1.552h-56.626v1.552c0 2.596 2.287 4.7 5.109 4.7Z"/>
  <path fill="#F6CD6E" d="m422.275 349.616 24.576 30.665-46.977 23.576-2.231-3.764c-2.92-4.925-1.387-11.082 3.572-14.348l5.635-3.711-15.686-17.553 31.111-14.865Z"/>
  <path stroke="#fff" stroke-miterlimit="10" stroke-width="1.063" d="m406.857 381.468 5.769-2.895c1.631-.818 2.145-2.748 1.11-4.168-.859-1.179-2.519-1.614-3.925-1.028l-7.939 3.34m-1.409-1.9 5.769-2.895c1.631-.818 2.145-2.748 1.11-4.168-.859-1.179-2.519-1.614-3.925-1.028l-7.945 2.919"/>
  <path fill="#FA8F7F" d="M433.647 382.697c3.777 0 6.838-2.817 6.838-6.292 0-3.475-3.061-6.292-6.838-6.292-3.776 0-6.838 2.817-6.838 6.292 0 3.475 3.062 6.292 6.838 6.292Zm-26.708 23.904 38.501-19.321c2.341-1.175 3.203-3.873 1.927-6.026l-.763-1.288-46.978 23.576.763 1.287c1.277 2.153 4.209 2.948 6.55 1.772Z"/>
  <path fill="#F6CD6E" d="M333.371 146.075c5.523-2.159 14.052 1.34 16.603 9.911 5.164 17.351 5.352 28.898 5.352 28.898s-38.27-2.783-38.005-3.677c6.349-21.416 5.441-30.156 16.05-35.132Z"/>
  <mask id="a" width="39" height="40" x="317" y="145" maskUnits="userSpaceOnUse" style="mask-type:luminance">
    <path fill="#fff" d="M333.371 146.075c5.523-2.159 14.052 1.34 16.603 9.911 5.164 17.351 5.352 28.898 5.352 28.898s-38.27-2.783-38.005-3.677c6.349-21.416 5.441-30.156 16.05-35.132Z"/>
  </mask>
  <g mask="url(#a)">
    <path fill="#fff" d="M351.864 181.857c-.168-7.512-4.665-14.162-11.941-17.583-.285-.133-.77-.043-.825.309-.659 4.239-.645 7.805 2.164 11.405 2.441 3.128 5.769 6.08 9.826 7.233.692.197.988-.8.299-.996-3.482-.989-6.19-3.376-8.448-5.933-1.834-2.078-3.055-4.254-3.18-6.985-.055-1.202-.213-3.494 1.129-3.383 2.545.211 5.911 4.783 7.047 6.557 1.857 2.901 2.732 6.026 2.807 9.377.014.663 1.137.665 1.122-.001Zm-8.924-18.849c2.127.132 3.938-.997 5.052-2.609.595-.861.982-1.848 1.288-2.824.194-.616.439-1.227-.254-1.611-1.505-.833-3.806.731-4.827 1.652-1.463 1.32-2.296 3.04-2.508 4.902-.075.66 1.048.656 1.123 0a6.539 6.539 0 0 1 1.388-3.34c.787-.992 2.249-2.256 3.662-2.328.504-.025.375-.217.448.072.047.185-.247.792-.301.943a8.789 8.789 0 0 1-.881 1.844c-.903 1.398-2.373 2.377-4.19 2.265-.722-.044-.719.989 0 1.034Zm-3.389-14.907c.357 5.828-2.645 11.742-8.277 14.687-.774.438-1.603.777-2.485 1.014-1.563-1.098-1.999-2.465-1.309-4.101.452-1.976 1.577-3.768 2.984-5.296 2.32-2.518 5.48-4.761 9.03-5.442.707-.136.408-1.132-.299-.997-4.643.891-9.162 4.408-11.44 8.203-.968 1.614-3.226 7.381-.67 8.711 2.873 1.495 8.219-3.444 9.721-5.211 2.822-3.319 4.124-7.384 3.867-11.569-.04-.661-1.163-.665-1.122.001Zm-5.082 25.5c.173-2.731-1.319-5.267-3.877-6.654-.257-.14-.621-.058-.768.185-1.763 2.918-.231 6.397 3.266 7.318.696.183.993-.813.299-.996-2.792-.735-4.015-3.45-2.595-5.8l-.768.185c2.237 1.213 3.471 3.382 3.32 5.761-.042.665 1.081.663 1.123.001Zm-9.218 10.015c2.308-3.623 3.299-7.636 2.89-11.821-.025-.26-.237-.542-.562-.517-3.587.277-6.834 1.294-9.84 3.126-.6.366-.038 1.262.567.893 2.825-1.723 5.89-2.725 9.273-2.986l-.562-.517c.392 4.015-.517 7.817-2.737 11.299-.365.576.605 1.097.971.523Zm15.494 1.473a26.964 26.964 0 0 0-4.284-7.23c-.308-.374-.833-.305-1.026.123-.975 2.16-1.857 4.313-1.734 6.688.034.662 1.158.666 1.123 0-.118-2.283.759-4.342 1.694-6.413l-1.026.123c1.766 2.139 3.164 4.461 4.17 6.984.247.62 1.333.352 1.083-.275Z"/>
  </g>
  <path fill="#FFBB9E" d="M273.906 188.107c-.424-.672-11.649-2.408-10.562-4.194 1.087-1.786 11.633 1.461 11.394.28-.24-1.181-10.699-4.102-10.429-5.338.269-1.235 18.965 4.284 9.408.085-9.557-4.2-8.767-5.595-2.793-4.06 4.139 1.063 9.947 2.29 13.125 2.944 1.058.218 2.012-.545 1.798-1.441-.476-1.991-1.027-4.933-.366-5.749 1.026-1.266 9.229 10.267 9.229 10.267l-.002.013c3.538-.951 26.449 1.374 42.046 4.549 9.646 1.963 16.742 8.726 13.425 17.317l-.636 1.586c-3.411 8.835-18.313 11.332-27.23 6.879-13.156-6.569-28.756-15.742-31.29-17.847l-.015.003c-1.65.153-25.752-2.152-24.793-5.002.269-.805 8.115.381 7.691-.292Z"/>
  <path fill="#181D3D" d="m345.838 93.44-.549-2.36c-.576-2.476.539-5.026 2.818-6.445l.001-.001c3.048-1.898 6.449-1.185 9.306 1.569 7.959 7.675 32.964 29.675 32.964 29.675 6.58 8.602-1.247 23.623-10.714 29.519 0 0-.247-2.147-.392-2.94-2.404-13.184-33.434-49.017-33.434-49.017Z"/>
  <path fill="#181D3D" d="M392.333 119.456c-1.103-7.787-8.898-15.524-14.878-20.71-7.093-6.149-15.473-10.749-24.634-13.768-1.55-.51-2.218 1.76-.679 2.267 8.258 2.721 15.851 6.799 22.378 12.207 5.773 4.785 14.2 12.533 15.259 20.004.209 1.478 2.766 1.498 2.554 0Zm-42.181 13.131s22.357-17.803 6.748-34.417c0 0-6.386 23.167-6.748 34.417Z"/>
  <path fill="#FFBB9E" d="M353.952 116.658c.08.328.435.53.788.445 1.474-.355 5.098-.826 6.573 2.612 1.491 3.477-3.764 5.404-5.971 6.047a2.506 2.506 0 0 0-1.477 1.135c-.969 1.666-3.286 5.423-3.295 9.337-.021 8.646 7.932 10.71 7.932 10.71s-15.843 10.474-23.883 7.715c0 0 1.913-20.174-.697-20.464-4.61-.513-10.604-1.97-11.193-16.478-.556-13.673 11.227-15.355 13.92-15.545 2.272-.16 13.318-1.76 17.303 14.486Z"/>
  <path fill="#1D244A" d="M334.084 134.194s5.369-.953 10.258-2.822c1.925-.736-5.703 12.102-7.187 10.238-1.192-1.496-3.071-7.416-3.071-7.416Z"/>
  <path fill="#181D3D" d="M323.519 111.049c-.323-6.251 1.793-9.039 4.337-10.181 3.009-2.967 17.227-11.852 26.658-4.958 12.801 9.358 3.66 20.003-.009 21.198-1.806 1.668-21.656-6.49-27.567-8.974l-3.419 2.915Z"/>
  <path fill="#181D3D" d="M357.29 114.593c-6.357 3.833-11.502 3.94-17.413-.459-3.363-2.502-6.564-5.193-9.728-7.904-.601-.515-1.506.315-.903.831 4.316 3.697 9.003 8.621 14.439 10.884 5.271 2.194 9.702.405 14.248-2.337.686-.414.047-1.431-.643-1.015Z"/>
  <path fill="#65B8CF" d="M354.62 96.289a.434.434 0 0 0 .207-.114.37.37 0 0 0-.025-.553c-3.735-3.165-9.443-2.748-9.684-2.729-.233.017-.407.21-.387.425.02.215.227.374.461.357.055-.005 5.579-.403 9.034 2.524a.45.45 0 0 0 .394.09Z"/>
  <path fill="#E8674E" d="M359.302 119.882s-3.43-3.79-4.635 2.662Z"/>
  <path fill="#fff" d="m325.945 124.351 7.568-.19s-1.792 3.393-3.994 3.096c-2.2-.297-3.574-2.906-3.574-2.906Z"/>
  <path fill="#E8674E" d="m329.216 119.301.51 3.504-1.992-.119c-.368-.022-.575-.398-.378-.684l1.86-2.701Z"/>
  <path fill="#020C2B" d="M334.643 115.557c.694.436-.392-1.536-1.335-1.755-.943-.22-1.875.211-2.081.96 0 0 1.748-.251 3.416.795Zm-10.289-.478c1.577-.634 3.001-.319 3.001-.319-.139-.763-1.03-1.26-1.99-1.112-.36.055-.761.355-1.084.688 0 0-.25.846.073.743Zm7.752 4.459c-.022.623-.306 1.12-.634 1.109-.328-.01-.576-.522-.554-1.145.022-.623.306-1.12.634-1.11.328.01.576.523.554 1.146Zm-4.781-.194c-.021.595-.292 1.07-.606 1.06-.314-.009-.551-.499-.53-1.094.021-.595.292-1.069.606-1.06.314.01.551.499.53 1.094Z"/>
  <path fill="#FF9A8C" d="M343.451 123.389c.319 2.239-1.205 4.269-3.403 4.534-2.198.265-4.238-1.336-4.556-3.576-.319-2.239 1.205-4.27 3.403-4.534 2.198-.265 4.238 1.336 4.556 3.576Zm-18.906 4.051c.955-.857 1.315-2.1 1.116-3.5-.239-1.681-1.266-3.06-2.782-3.503 0 0 .931 5.196 1.666 7.003Z"/>
  <path fill="#994539" d="m326.102 188.905 2.544 2.392.015 5.658s-3.385-1.138-2.559-8.05Z"/>
  <path fill="#FF7F78" d="M333.802 156.836s-6.653 19.911-7.701 32.07c.615 6.961 1.495 7.489 1.495 7.489s-5.818-2.526-4.393-10.278c2.904-29.854 8.874-36.495 8.874-36.495l1.725 7.214Z"/>
  <path fill="#FF9A8C" d="M397.128 165.261s19.208 16.233 17.177 24.152l-25.906-15.712 8.729-8.44Z"/>
  <path fill="#F6CD6E" d="M333.148 152.162c.587.721-5.686 23.693-5.392 31.865.229 6.349 2.39 34.357 2.348 34.794 0 0 18.24-1.254 55.944-10.182-2.63-8.332-10.67-52.75-17.257-61.715 0 0-6.545-1.049-9.746-.518 0 0-8.956 11.226-25.897 5.756Z"/>
  <path fill="#fff" d="m359.045 146.406-7.274-5.055-13.492 12.202 1.325 5.824c.57 2.507 4.01 3.332 5.838 1.401l13.603-14.372Zm-24.314-1.021 3.547 8.168-1.56 6.555c-.253 1.063-1.89 1.09-2.185.037l-2.216-9.565 2.414-5.195Z"/>
  <path fill="#F6CD6E" d="M353.847 153.476c1.654-5.308 9.978-9.202 18.821-5.63 17.901 7.231 27.77 14.366 27.77 14.366s-26.444 25.608-27.031 24.857c-14.087-18.022-22.037-22.875-19.56-33.593Z"/>
  <mask id="b" width="48" height="42" x="353" y="146" maskUnits="userSpaceOnUse" style="mask-type:luminance">
    <path fill="#fff" d="M353.847 153.476c1.654-5.308 9.978-9.202 18.821-5.63 17.901 7.231 27.77 14.366 27.77 14.366s-26.444 25.608-27.031 24.857c-14.087-18.022-22.037-22.875-19.56-33.593Z"/>
  </mask>
  <g mask="url(#b)">
    <path fill="#fff" d="M395.632 162.738c-6.528-4.614-14.856-5.475-22.379-2.45-.347.14-.334.594-.114.812 2.983 2.95 5.877 5.155 10.378 5.537 4.295.365 9.159-.222 12.804-2.414.602-.363.04-1.258-.567-.893-3.15 1.897-7.02 2.412-10.742 2.329-2.622-.058-12.591-2.693-8.794-5.347 2.253-1.575 7.913-.914 10.471-.398 3.104.627 5.87 1.945 8.376 3.716.573.404 1.133-.493.567-.892Zm-21.503-5.403c2.378-2.42 1.404-6.819-1.315-8.769-.148-.106-.35-.206-.546-.132-1.675.628-1.97 2.721-1.89 4.196.108 1.996 1.039 3.796 2.547 5.215.506.476 1.3-.255.794-.731-.955-.898-1.65-1.93-1.993-3.154-.261-.929-.554-2.75.092-3.609.656-.87 1.042-.179 1.428.418.373.577.709 1.176.914 1.824.447 1.417.287 2.88-.825 4.012-.484.492.308 1.225.794.73Zm-14.612-6.957c4.461 2.994 9.752 10.663 6.923 16.048-2.66 5.063-6.532-2.473-7.17-4.76-.931-3.337-.895-7.595.84-10.696.33-.59-.638-1.113-.97-.521-2.197 3.928-2.105 9.432-.265 13.475.798 1.753 4.125 6.842 6.849 5.91 2.882-.987 2.355-7.211 1.967-9.33-.828-4.528-3.616-8.339-7.608-11.019-.584-.392-1.145.505-.566.893Zm18.306 19.679c-2.201-1.841-5.253-2.426-8.053-1.469-.26.089-.512.358-.392.636 1.331 3.085 5.196 4.266 8.208 2.343.59-.377.029-1.273-.567-.893-2.357 1.505-5.474.789-6.558-1.725l-.392.636c2.425-.83 5.034-.409 6.961 1.202.533.446 1.33-.282.793-.73Zm2.626 12.904c-1.608-3.976-4.41-7.244-8.248-9.598-.265-.163-.605-.034-.768.185-2.03 2.736-3.174 5.718-3.512 9.016-.068.662 1.056.658 1.123 0 .318-3.104 1.449-5.921 3.359-8.496l-.768.185c3.58 2.196 6.231 5.268 7.732 8.981.249.62 1.334.352 1.082-.273Zm10.907-10.219a32.683 32.683 0 0 0-8.812-1.472.523.523 0 0 0-.485.778c1.235 2.101 2.523 4.103 4.653 5.535.584.392 1.145-.504.567-.893-1.955-1.314-3.121-3.243-4.25-5.164l-.485.778a31.55 31.55 0 0 1 8.513 1.434c.686.215.981-.784.299-.996Z"/>
  </g>
  <path fill="#fff" d="M338.701 164.155c.086-1.009-.122-1.847-.465-1.872-.342-.025-.69.774-.775 1.783-.086 1.009.122 1.847.464 1.872.343.025.69-.774.776-1.783Z"/>
  <path fill="#FF7F78" d="M367.654 146.51c.322.593-8.795-2.037-9.031 11.015-.236 13.051 12.416 53.111 31.362 50.473 0 0-.439 3.169-4.921 4.099-5.751 1.194-15.8-1.509-20.546-8.559-7.537-11.198-10.998-21.642-13.579-45.873-.237-2.226 2.696-11.475 8.073-11.672 0 0 7.676-1.267 8.642.517Z"/>
  <path fill="#FFBB9E" d="M358.932 175.596c.004.003.011 0 .017.001 1.926 2.898 11.087 12.036 22.543 22.569 7.766 7.139 24.059 8.761 30.547.558l1.189-1.465c6.309-7.976 1.204-16.997-8.148-21.76-15.121-7.701-34.153-11.799-38.141-11.812l.007-.014s-4.661-14.282-6.148-13.258c-.958.659-1.368 3.868-1.539 6.067-.077.99-1.321 1.512-2.346.987-3.078-1.577-8.773-4.379-12.634-6.763-2.734-1.689 1.227 5.301 1.542 5.001 0 0-1.222 5.643-.053 8.864 1.171 3.219 8.722 7.838 13.164 11.025Z"/>
</svg>
